<svg version="1.1" id="Layer_1" xmlns="http://www.w3.org/2000/svg" xmlns:xlink="http://www.w3.org/1999/xlink" x="0px" y="0px"
	 width="100%" viewBox="0 0 355 340" enable-background="new 0 0 355 340" xml:space="preserve">
<path fill="#12101B" opacity="1.000000" stroke="none" 
	d="
M356.000000,197.000000 
	C356.000000,244.967331 356.000000,292.934662 356.000000,340.950989 
	C237.779922,340.950989 119.559807,340.950989 1.000000,340.950989 
	C1.000000,293.312988 1.000000,245.625153 1.353616,197.417572 
	C2.873093,196.291412 4.121628,195.803680 5.190991,195.058731 
	C10.836912,191.125656 16.132437,186.576584 22.115454,183.263092 
	C36.081379,175.528549 50.180214,167.976410 64.599182,161.139023 
	C73.285789,157.019897 82.616875,154.210663 91.765587,151.131393 
	C98.623970,148.822983 105.653358,147.022659 112.705498,145.455627 
	C112.804398,180.334396 112.804398,214.753662 112.804398,249.277725 
	C113.831100,249.465820 114.461311,249.682068 115.091599,249.682327 
	C154.036194,249.698059 192.981445,249.824493 231.925034,249.623840 
	C244.947250,249.556732 250.637405,243.488785 250.798355,230.390152 
	C250.957855,217.410568 251.028366,204.422607 250.703812,191.449188 
	C250.616364,187.953552 249.682693,184.013504 247.798035,181.163055 
	C246.012833,178.463013 242.470718,176.924591 239.641571,174.831131 
	C250.381546,172.364700 251.009109,163.657242 250.851852,154.463501 
	C250.797928,151.310715 250.981796,148.153854 251.403290,145.089066 
	C253.911301,146.124924 255.997208,147.350449 258.249786,147.960938 
	C263.821838,149.471024 269.665924,150.170288 275.044281,152.159180 
	C284.231689,155.556671 293.192902,159.586273 302.161835,163.547943 
	C310.502045,167.231873 319.137726,170.493652 326.904175,175.169144 
	C337.285156,181.418610 348.918701,186.261703 356.000000,197.000000 
z"/>
<path fill="#0F0D18" opacity="1.000000" stroke="none" 
	d="
M356.000000,196.531342 
	C348.918701,186.261703 337.285156,181.418610 326.904175,175.169144 
	C319.137726,170.493652 310.502045,167.231873 302.161835,163.547943 
	C293.192902,159.586273 284.231689,155.556671 275.044281,152.159180 
	C269.665924,150.170288 263.821838,149.471024 258.249786,147.960938 
	C255.997208,147.350449 253.911301,146.124924 251.308334,144.628906 
	C250.857819,139.751190 250.928665,135.421768 250.817764,131.097031 
	C250.694901,126.306519 250.260559,121.521523 250.219070,116.731895 
	C250.129349,106.375496 241.621017,101.011108 231.326111,101.032478 
	C193.044937,101.111938 154.763519,101.061752 116.482208,101.076874 
	C115.372093,101.077309 114.262054,101.263565 112.606598,101.412117 
	C112.606598,116.099792 112.606598,130.547958 112.606598,144.996109 
	C105.653358,147.022659 98.623970,148.822983 91.765587,151.131393 
	C82.616875,154.210663 73.285789,157.019897 64.599182,161.139023 
	C50.180214,167.976410 36.081379,175.528549 22.115454,183.263092 
	C16.132437,186.576584 10.836912,191.125656 5.190991,195.058731 
	C4.121628,195.803680 2.873093,196.291412 1.353616,196.948914 
	C1.000000,131.704941 1.000000,66.409866 1.000000,1.057402 
	C119.225723,1.057402 237.451492,1.057402 356.000000,1.057402 
	C356.000000,66.020538 356.000000,131.041611 356.000000,196.531342 
z"/>
<path fill="#EBE8E0" opacity="1.000000" stroke="none" 
	d="
M112.705498,145.455627 
	C112.606598,130.547958 112.606598,116.099792 112.606598,101.412117 
	C114.262054,101.263565 115.372093,101.077309 116.482208,101.076874 
	C154.763519,101.061752 193.044937,101.111938 231.326111,101.032478 
	C241.621017,101.011108 250.129349,106.375496 250.219070,116.731895 
	C250.260559,121.521523 250.694901,126.306519 250.817764,131.097031 
	C250.928665,135.421768 250.857819,139.751190 250.962067,144.538696 
	C250.981796,148.153854 250.797928,151.310715 250.851852,154.463501 
	C251.009109,163.657242 250.381546,172.364700 239.641571,174.831131 
	C242.470718,176.924591 246.012833,178.463013 247.798035,181.163055 
	C249.682693,184.013504 250.616364,187.953552 250.703812,191.449188 
	C251.028366,204.422607 250.957855,217.410568 250.798355,230.390152 
	C250.637405,243.488785 244.947250,249.556732 231.925034,249.623840 
	C192.981445,249.824493 154.036194,249.698059 115.091599,249.682327 
	C114.461311,249.682068 113.831100,249.465820 112.804398,249.277725 
	C112.804398,214.753662 112.804398,180.334396 112.705498,145.455627 
M158.826218,227.437973 
	C158.826218,230.046860 158.826218,232.655746 158.826218,235.367065 
	C172.956711,235.367065 186.553391,235.422531 200.149109,235.331924 
	C204.032074,235.306061 206.579819,233.118576 206.594589,229.189056 
	C206.646439,215.391159 206.464722,201.592346 206.356964,187.793976 
	C206.329803,184.316818 204.312881,182.484329 201.062363,182.459290 
	C187.145172,182.352097 173.226700,182.413620 158.826172,182.413620 
	C158.826172,197.262009 158.826172,211.856873 158.826218,227.437973 
M192.446198,115.164513 
	C181.349075,115.164513 170.251968,115.164513 159.172028,115.164513 
	C159.172028,133.182571 159.172028,150.567993 159.172028,168.169098 
	C172.156464,168.169098 184.797134,168.197433 197.437576,168.158844 
	C205.475067,168.134308 206.570496,167.104416 206.669220,158.868088 
	C206.790985,148.710846 206.701813,138.551056 206.701324,128.392365 
	C206.700684,115.164886 206.699646,115.164886 192.446198,115.164513 
z"/>
<path fill="#15141E" opacity="1.000000" stroke="none" 
	d="
M158.826202,226.944855 
	C158.826172,211.856873 158.826172,197.262009 158.826172,182.413620 
	C173.226700,182.413620 187.145172,182.352097 201.062363,182.459290 
	C204.312881,182.484329 206.329803,184.316818 206.356964,187.793976 
	C206.464722,201.592346 206.646439,215.391159 206.594589,229.189056 
	C206.579819,233.118576 204.032074,235.306061 200.149109,235.331924 
	C186.553391,235.422531 172.956711,235.367065 158.826218,235.367065 
	C158.826218,232.655746 158.826218,230.046860 158.826202,226.944855 
z"/>
<path fill="#13111B" opacity="1.000000" stroke="none" 
	d="
M192.934998,115.164513 
	C206.699646,115.164886 206.700684,115.164886 206.701324,128.392365 
	C206.701813,138.551056 206.790985,148.710846 206.669220,158.868088 
	C206.570496,167.104416 205.475067,168.134308 197.437576,168.158844 
	C184.797134,168.197433 172.156464,168.169098 159.172028,168.169098 
	C159.172028,150.567993 159.172028,133.182571 159.172028,115.164513 
	C170.251968,115.164513 181.349075,115.164513 192.934998,115.164513 
z"/>
</svg>